PathFileType	4	(X/Y/Z)	D:\telocate\uwb05-Unnamed.trc
DataRate	CameraRate	NumFrames	NumMarkers	Units	OrigDataRate	OrigDataStartFrame	OrigNumFrames
100.00	100.00	      226	0	mm	100.00	1030	      8235
Frame#	Time	
		

1030	10.290				2452.41821	1885.84631	1135.88721	
1031	10.300				2440.18750	1886.86011	1134.60339	
1032	10.310				2431.88477	1890.64551	1135.21729	
1033	10.320				2418.06152	1891.99805	1135.30957	
1034	10.330				2406.63721	1893.87231	1135.80225	
1035	10.340				2395.91309	1896.62378	1136.02881	
1036	10.350				2386.94604	1899.13782	1135.89575	
1037	10.360				2373.98267	1900.90845	1136.20679	
1038	10.370				2364.44458	1901.84534	1135.95642	
1039	10.380				2354.54590	1903.50586	1135.94043	
1040	10.390				2346.58203	1905.49670	1136.72424	
1041	10.400				2336.29028	1907.40479	1137.67590	
1042	10.410				2325.80298	1908.54565	1138.03162	
1043	10.420				2318.20947	1910.38623	1138.78137	
1044	10.430				2307.29980	1912.55579	1140.09583	
1045	10.440				2299.81006	1914.90808	1140.87769	
1046	10.450				2289.62354	1916.70056	1142.12903	
1047	10.460				2279.10938	1918.55164	1143.17664	
1048	10.470				2271.40625	1920.32104	1144.36316	
1049	10.480				2261.37744	1921.85168	1144.40027	
1050	10.490				2253.75732	1924.32861	1145.54041	
1051	10.500				2243.27588	1925.92456	1146.01099	
1052	10.510				2232.74438	1927.40735	1146.92822	
1053	10.520				2224.18384	1928.74890	1146.57605	
1054	10.530				2214.80078	1930.66467	1148.29700	
1055	10.540				2206.62817	1932.63672	1148.01392	
1056	10.550				2195.16162	1933.58411	1148.80701	
1057	10.560				2185.72827	1934.95471	1149.56995	
1058	10.570				2176.28735	1935.54150	1150.04004	
1059	10.580				2168.57178	1936.76038	1150.08948	
1060	10.590				2158.18262	1938.37000	1151.46497	
1061	10.600				2147.18311	1938.51306	1151.76257	
1062	10.610				2139.42749	1940.10645	1152.91357	
1063	10.620				2130.65405	1940.26794	1152.31702	
1064	10.630				2122.73682	1941.50183	1153.11401	
1065	10.640				2110.27734	1941.42468	1153.82104	
1066	10.650				2101.22534	1942.11340	1154.11816	
1067	10.660				2091.20630	1942.78674	1154.71204	
1068	10.670				2079.25317	1943.02722	1154.14209	
1069	10.680				2070.29907	1943.97620	1154.63464	
1070	10.690				2060.92944	1944.48083	1154.52612	
1071	10.700				2051.26636	1945.20667	1154.36084	
1072	10.710				2038.38989	1945.18530	1154.84302	
1073	10.720				2027.90662	1946.48022	1155.01001	
1074	10.730				2018.76611	1947.25928	1154.79370	
1075	10.740				2006.71375	1946.98633	1154.19287	
1076	10.750				1994.47437	1947.84351	1154.01257	
1077	10.760				1979.62415	1947.77686	1152.34839	
1078	10.770				1968.63110	1948.66772	1152.88538	
1079	10.780				1955.99231	1948.77795	1152.19812	
1080	10.790				1944.07068	1949.28613	1151.32471	
1081	10.800				1933.15198	1950.20386	1150.47754	
1082	10.810				1918.81262	1950.01550	1149.84473	
1083	10.820				1908.38794	1950.87793	1149.59338	
1084	10.830				1897.76697	1951.39905	1149.29944	
1085	10.840				1885.43408	1951.39758	1148.18945	
1086	10.850				1875.14758	1951.10693	1148.27039	
1087	10.860				1863.84436	1951.15027	1148.44788	
1088	10.870				1855.00110	1952.21191	1148.24963	
1089	10.880				1844.20374	1952.39844	1148.58008	
1090	10.890				1832.98987	1951.79773	1148.12927	
1091	10.900				1822.74243	1951.71558	1148.85815	
1092	10.910				1813.60632	1952.64246	1149.49194	
1093	10.920				1801.95557	1951.97192	1148.62158	
1094	10.930				1792.23047	1952.55444	1148.65833	
1095	10.940				1781.52954	1952.13025	1149.00916	
1096	10.950				1774.26489	1952.47351	1148.65710	
1097	10.960				1764.99878	1952.24158	1150.06726	
1098	10.970				1755.01221	1952.15503	1151.41626	
1099	10.980				1747.34143	1952.11682	1150.88025	
1100	10.990				1739.24719	1952.49280	1153.48169	
1101	11.000				1731.59729	1952.72998	1153.89099	
1102	11.010				1722.77905	1952.89453	1154.94775	
1103	11.020				1712.36890	1951.87549	1155.34729	
1104	11.030				1705.97119	1951.74902	1156.11206	
1105	11.040				1697.85181	1951.98938	1157.60486	
1106	11.050				1689.84521	1952.29309	1158.28979	
1107	11.060				1681.71118	1952.23486	1159.01465	
1108	11.070				1672.25293	1952.15430	1160.25879	
1109	11.080				1661.85413	1951.33215	1160.14429	
1110	11.090				1655.76428	1952.01233	1161.16101	
1111	11.100				1646.33325	1952.08740	1161.42358	
1112	11.110				1639.03381	1952.54395	1162.15271	
1113	11.120				1630.19177	1951.98633	1162.43958	
1114	11.130				1621.25366	1952.23743	1163.24768	
1115	11.140				1614.22864	1952.22351	1162.98706	
1116	11.150				1606.31116	1952.32031	1163.59570	
1117	11.160				1600.72485	1953.71814	1166.02698	
1118	11.170				1589.01001	1953.02051	1163.94983	
1119	11.180				1582.34729	1953.53650	1166.48035	
1120	11.190				1573.74963	1954.35632	1166.45508	
1121	11.200				1566.10706	1954.96436	1166.53882	
1122	11.210				1554.25330	1955.14441	1166.57666	
1123	11.220				1542.27661	1954.82471	1166.68091	
1124	11.230				1529.19678	1955.16443	1166.25232	
1125	11.240				1516.33777	1955.02954	1165.78284	
1126	11.250				1502.71130	1955.70728	1165.89417	
1127	11.260				1488.91833	1955.41699	1163.96423	
1128	11.270				1474.58337	1955.55457	1163.25854	
1129	11.280				1461.26648	1955.74158	1162.92505	
1130	11.290				1448.33862	1956.41016	1161.85779	
1131	11.300				1434.36096	1956.50012	1160.29517	
1132	11.310				1420.19128	1956.18652	1158.40576	
1133	11.320				1408.12183	1955.90820	1157.40039	
1134	11.330				1394.58777	1956.16614	1156.34473	
1135	11.340				1381.43848	1956.40063	1155.22314	
1136	11.350				1369.32874	1956.25562	1153.41333	
1137	11.360				1357.32617	1956.63831	1152.07092	
1138	11.370				1345.25696	1957.14966	1151.47717	
1139	11.380				1332.16663	1957.81335	1150.96948	
1140	11.390				1320.29834	1957.84094	1149.45569	
1141	11.400				1309.38550	1957.87756	1148.96887	
1142	11.410				1296.68384	1958.24084	1148.16272	
1143	11.420				1284.71448	1958.76563	1146.83374	
1144	11.430				1273.38391	1959.75110	1146.72400	
1145	11.440				1262.08301	1960.58997	1146.47070	
1146	11.450				1251.06494	1961.53455	1146.11877	
1147	11.460				1239.33032	1962.63647	1146.20618	
1148	11.470				1228.31641	1962.93896	1145.28381	
1149	11.480				1216.76514	1964.31921	1145.11035	
1150	11.490				1206.04590	1965.41687	1145.21948	
1151	11.500				1194.79553	1966.12878	1145.59216	
1152	11.510				1184.99084	1967.66711	1146.03552	
1153	11.520				1174.17175	1968.93799	1146.40271	
1154	11.530				1163.69189	1969.89868	1147.04443	
1155	11.540				1154.17029	1971.55237	1147.87842	
1156	11.550				1143.71912	1973.01685	1148.98181	
1157	11.560				1133.41650	1974.08655	1149.12903	
1158	11.570				1122.91589	1975.62988	1150.15283	
1159	11.580				1112.11755	1976.85242	1151.13428	
1160	11.590				1101.72742	1978.01050	1151.71045	
1161	11.600				1091.80237	1979.18347	1152.83472	
1162	11.610				1080.92444	1979.83997	1153.67798	
1163	11.620				1071.36487	1981.60864	1154.80750	
1164	11.630				1061.02563	1982.79919	1156.00281	
1165	11.640				1051.51050	1983.59082	1157.34680	
1166	11.650				1042.02502	1985.21008	1158.71863	
1167	11.660				1032.77148	1985.88123	1159.91614	
1168	11.670				1023.48816	1987.08191	1161.25793	
1169	11.680				1013.14941	1988.10986	1162.54333	
1170	11.690				1003.46790	1988.76904	1163.34180	
1171	11.700				993.95050	1989.91956	1164.24707	
1172	11.710				984.18329	1990.27991	1164.94031	
1173	11.720				974.09869	1991.36975	1165.84180	
1174	11.730				963.63354	1991.58191	1166.04773	
1175	11.740				953.90131	1992.36804	1166.87976	
1176	11.750				944.51215	1993.14734	1167.45215	
1177	11.760				933.73120	1993.13831	1168.01440	
1178	11.770				922.43402	1993.60339	1168.32007	
1179	11.780				911.36145	1992.21814	1169.21533	
1180	11.790				900.95154	1993.71521	1168.54980	
1181	11.800				890.16577	1994.38464	1168.51758	
1182	11.810				877.91284	1994.31226	1168.37610	
1183	11.820				866.81415	1994.38550	1168.54016	
1184	11.830				854.78448	1994.16821	1168.52966	
1185	11.840				843.72278	1994.41650	1168.37524	
1186	11.850				831.78143	1994.09778	1168.04541	
1187	11.860				820.03845	1993.54944	1166.93079	
1188	11.870				809.44873	1993.48315	1167.06323	
1189	11.880				797.42737	1993.18115	1166.52576	
1190	11.890				786.44073	1993.17529	1166.37195	
1191	11.900				773.66925	1992.33350	1165.63306	
1192	11.910				762.01917	1992.16455	1165.04114	
1193	11.920				749.33014	1991.65039	1164.33594	
1194	11.930				738.07971	1992.04016	1164.23779	
1195	11.940				725.42230	1991.54016	1163.31934	
1196	11.950				713.84277	1991.23120	1162.97656	
1197	11.960				702.58630	1990.76501	1162.02734	
1198	11.970				690.84113	1990.06897	1161.43323	
1199	11.980				679.51593	1989.93994	1161.46191	
1200	11.990				668.17023	1989.21008	1161.22461	
1201	12.000				659.02570	1987.75574	1160.65186	
1202	12.010				648.05109	1989.08777	1161.65930	
1203	12.020				635.29047	1987.32349	1160.44373	
1204	12.030				624.85608	1986.52429	1160.45300	
1205	12.040				612.65070	1985.21313	1161.78955	
1206	12.050				604.07355	1985.45300	1160.17371	
1207	12.060				594.66260	1984.83813	1160.56982	
1208	12.070				584.05621	1983.74731	1160.60107	
1209	12.080				574.47345	1983.06128	1161.41931	
1210	12.090				564.84607	1982.16577	1162.20203	
1211	12.100				554.90106	1981.57874	1162.60864	
1212	12.110				545.42615	1980.70435	1164.18616	
1213	12.120				535.68036	1979.63232	1164.14246	
1214	12.130				527.02521	1978.00146	1165.54114	
1215	12.140				517.52704	1976.99182	1165.86658	
1216	12.150				508.19254	1976.18127	1166.96582	
1217	12.160				494.76599	1973.06213	1165.48645	
1218	12.170				483.04721	1971.32910	1166.19958	
1219	12.180				474.01785	1969.83569	1166.84998	
1220	12.190				465.57974	1969.18701	1168.37842	
1221	12.200				458.09125	1968.18750	1169.68140	
1222	12.210				450.83655	1967.99963	1172.37292	
1223	12.220				445.71692	1966.94763	1173.15503	
1224	12.230				436.79474	1966.00952	1174.09631	
1225	12.240				427.87708	1964.92859	1174.77173	
1226	12.250				419.52594	1963.06384	1175.36719	
1227	12.260				411.76764	1962.14734	1176.22217	
1228	12.270				403.78720	1960.56140	1176.33252	
1229	12.280				395.53055	1959.81482	1177.00183	
1230	12.290				387.82922	1958.19482	1177.30225	
1231	12.300				379.46454	1957.36499	1177.49463	
1232	12.310				370.74301	1956.76257	1178.09985	
1233	12.320				362.28723	1955.56628	1177.32446	
1234	12.330				354.06711	1954.32800	1177.82898	
1235	12.340				340.73944	1951.46021	1175.32141	
1236	12.350				331.16986	1950.88403	1175.86072	
1237	12.360				318.18286	1949.43494	1175.45715	
1238	12.370				306.69794	1948.36670	1175.54199	
1239	12.380				296.74557	1947.63354	1177.28247	
1240	12.390				278.44659	1945.40161	1175.65869	
1241	12.400				265.00528	1943.63403	1176.41455	
1242	12.410				247.20959	1942.10767	1175.46484	
1243	12.420				232.14604	1940.11951	1175.76660	
1244	12.430				219.68980	1938.89392	1174.92090	
1245	12.440				202.57999	1935.06934	1174.45776	
1246	12.450				189.83723	1934.13416	1174.01648	
1247	12.460				180.08456	1934.08093	1174.98315	
1248	12.470				162.63246	1930.45520	1171.81091	
1249	12.480				151.14073	1929.70215	1171.44763	
1250	12.490				138.24716	1928.72681	1170.97375	
1251	12.500				122.30028	1926.92053	1169.89111	
1252	12.510				111.51698	1925.83057	1170.04688	
1253	12.520				102.76731	1925.88354	1170.76294	
1254	12.530				86.38077	1922.66296	1168.18018	
1255	12.540				79.23072	1923.46716	1169.82971	
